<svg 
    width="1200" 
    height="600" 
    viewBox="0 0 1200 600" 
    fill="none" 
    xmlns="http://www.w3.org/2000/svg"
>


<g 
    opacity="0.25"
    stroke="#D4AF37"
    stroke-width="3"
>


<path d="
M100 300
C150 220 260 220 310 300
C360 380 470 380 520 300
C570 220 680 220 730 300
C780 380 890 380 940 300
C990 220 1080 220 1140 300
"/>



<path d="
M60 400
C130 330 220 330 290 400
C360 470 450 470 520 400
C590 330 680 330 750 400
C820 470 910 470 980 400
C1050 330 1120 350 1180 400
"/>



</g>



<g 
    fill="#D4AF37"
    opacity="0.12"
>


<circle cx="200" cy="280" r="20"/>

<circle cx="520" cy="320" r="18"/>

<circle cx="850" cy="280" r="22"/>

<circle cx="1050" cy="410" r="15"/>


</g>



</svg>