<svg
    width="900"
    height="900"
    viewBox="0 0 900 900"
    fill="none"
    xmlns="http://www.w3.org/2000/svg"
>


<g
    stroke="#D4AF37"
    stroke-width="6"
    opacity="0.35"
>


<!-- Dragon body -->

<path d="
M160 470
C220 280 420 220 600 300
C720 350 760 500 650 610
C560 700 390 650 360 520
C330 390 470 340 570 410
"/>



<!-- Dragon head -->

<path d="
M600 300
C680 220 780 250 820 330
C760 320 720 370 680 420
"/>



<!-- Horn -->

<path d="
M740 290
C800 170 860 150 870 120
"/>



<!-- Eye -->

<circle
    cx="720"
    cy="340"
    r="12"
    fill="#D4AF37"
/>



<!-- Claws -->

<path d="
M520 560
L470 700
L560 620
L620 720
L650 570
"/>



<!-- Tail -->

<path d="
M200 470
C100 500 80 620 160 700
"/>



</g>



<!-- Imperial energy -->

<g
    fill="#D4AF37"
    opacity="0.15"
>

<circle cx="300" cy="360" r="30"/>

<circle cx="600" cy="500" r="25"/>

<circle cx="450" cy="650" r="20"/>

</g>


</svg>