<svg
    width="700"
    height="700"
    viewBox="0 0 700 700"
    fill="none"
    xmlns="http://www.w3.org/2000/svg"
>


<g
    stroke="#D4AF37"
    stroke-width="5"
    opacity="0.35"
>


<!-- Phoenix body -->

<path d="
M350 520
C250 450 210 330 280 220
C340 120 500 150 520 280
C540 410 430 480 350 520
"/>



<!-- Head -->

<path d="
M450 220
C560 120 650 160 620 250
C580 230 530 260 480 310
"/>



<!-- Beak -->

<path d="
M620 250
L690 220
L630 290
"/>



<!-- Crown feathers -->

<path d="
M500 190
C540 80 600 60 630 40
"/>



<path d="
M450 180
C450 80 500 50 530 20
"/>



<!-- Wings -->

<path d="
M300 280
C180 180 80 260 120 400
C180 330 250 350 320 430
"/>



<path d="
M400 300
C520 220 620 300 580 430
C520 360 460 370 380 460
"/>



<!-- Tail feathers -->

<path d="
M350 520
C260 620 180 640 120 620
"/>


<path d="
M370 530
C420 650 520 670 600 630
"/>



</g>




<g
    fill="#D4AF37"
    opacity="0.12"
>

<circle cx="300" cy="250" r="20"/>

<circle cx="500" cy="350" r="18"/>

<circle cx="350" cy="520" r="15"/>

</g>



</svg>